<?xml version="1.0" encoding="utf-8"?>
<!-- Generator: Adobe Illustrator 24.3.0, SVG Export Plug-In . SVG Version: 6.00 Build 0)  -->
<svg version="1.1" id="Layer_1" xmlns="http://www.w3.org/2000/svg" xmlns:xlink="http://www.w3.org/1999/xlink" x="0px" y="0px"
	 viewBox="0 0 150 150" style="enable-background:new 0 0 150 150;" xml:space="preserve">
<style type="text/css">
	.st0{fill:none;stroke:#C59344;stroke-width:2;stroke-miterlimit:10;}
	.st1{fill:none;stroke:#C59344;stroke-width:2;stroke-linecap:round;stroke-linejoin:round;stroke-miterlimit:10;}
	.st2{fill:none;stroke:#C59344;stroke-width:2;stroke-linecap:round;stroke-linejoin:round;stroke-miterlimit:5.205;}
</style>
<g id="Agriculture">
</g>
<g id="grain_trade">
</g>
<g id="cooperatives">
</g>
<g id="flour_mills">
</g>
<line class="st0" x1="29.8" y1="58.1" x2="61.4" y2="58.1"/>
<line class="st0" x1="65" y1="58.1" x2="68.1" y2="58.1"/>
<line class="st0" x1="71.5" y1="58.1" x2="79.1" y2="58.1"/>
<path class="st1" d="M56.8,48.2c5,0,7.1,3.6,7.1,3.6c0.3,0.1,0.7,0.2,1.1,0.2l2,2.8v-3.5c1.2-0.9,1.8-2.4,1.3-3.9
	c-0.4-1.2-1.4-2.1-2.6-2.3"/>
<path class="st1" d="M68.2,49.5c0.4,0.2,0.8,0.3,1.2,0.3c0.8,0,1.4-0.6,1.4-1.4S70.2,47,69.4,47c-0.3,0-0.8,0.1-1.2,0.3"/>
<path class="st1" d="M68,46.9c0.4-0.1,0.8-0.3,1.1-0.6c0.5-0.5,0.5-1.4,0-1.9s-1.4-0.5-1.9,0c-0.2,0.2-0.5,0.6-0.6,1"/>
<path class="st1" d="M66,45.2c0.2-0.4,0.3-0.8,0.3-1.1c0-0.8-0.6-1.4-1.4-1.4s-1.4,0.6-1.3,0.8"/>
<path class="st1" d="M30.1,39.3v-9.1c0-0.9,1.1-1.2,1.6-0.5c1.8,2.5,5,5.8,10.3,5.8h11.3c0.6,0,12.3,9.6,12.3,9.6"/>
<path class="st1" d="M47.9,51.8c-1.2,0.3-2.4,0.5-3.6,0.5h-1.6c-6.2,0-11.3-4.4-12.5-10.2"/>
<path class="st1" d="M47,39.5c-5.4,0-20.4,0-20.3,0c0.1,0.1,17.9,12.8,24,12.8c3.5,0,6.4-2.9,6.4-6.4c0-1.7-0.7-3.2-1.8-4.4"/>
<line class="st1" x1="42.1" y1="52.4" x2="42.1" y2="57.8"/>
<line class="st1" x1="47.2" y1="52.4" x2="47.2" y2="57.8"/>
<path class="st1" d="M125.2,65.9c6.9,0,12.5,5.6,12.5,12.5c0,6-4.3,11-9.9,12.2"/>
<line class="st1" x1="124.3" y1="85.1" x2="124.3" y2="96.7"/>
<line class="st1" x1="127.9" y1="90.9" x2="127.9" y2="96.7"/>
<line class="st1" x1="100.3" y1="85.1" x2="100.3" y2="96.7"/>
<line class="st1" x1="103.5" y1="91.9" x2="103.5" y2="96.7"/>
<path class="st1" d="M94.4,76.9c-1.4,1.9-3.5,3.2-8.3,3.1"/>
<path class="st1" d="M125.2,65.9h-17.4c-3.7,0-7.2,1.6-9.6,4.4c-0.4,0.5-0.8,1-1.1,1.5"/>
<path class="st1" d="M111.4,84.1c0,4.3-3.5,7.8-7.8,7.8"/>
<path class="st1" d="M98.3,74.7c0-2.2-1.8-4.1-4.1-4.1H88c0,3.4,2.7,6.1,6.1,6.1h1"/>
<path class="st1" d="M86.1,84.1c0,0,8.5,4.5,14.2,4.5"/>
<line class="st2" x1="86.1" y1="84.1" x2="86.1" y2="79.9"/>
<path class="st1" d="M124.3,90.9c0,0-5.8,3.9-17.6,0.3"/>
<line class="st0" x1="87.5" y1="97.4" x2="142.6" y2="97.4"/>
<line class="st0" x1="81.5" y1="97.4" x2="83.7" y2="97.4"/>
<line class="st0" x1="69.4" y1="62.5" x2="71.6" y2="62.5"/>
<line class="st0" x1="85" y1="93.7" x2="87.2" y2="93.7"/>
<path class="st2" d="M142.7,82.9c1.3,0,2.3-1,2.3-2.3s-1-2.3-2.3-2.3h-5"/>
<path class="st2" d="M142.7,82.9c-1.3,0-2.3,1-2.3,2.3s1,2.3,2.3,2.3h2.3"/>
<g>
	<line class="st0" x1="5" y1="120.6" x2="64.1" y2="120.6"/>
	<line class="st0" x1="67.9" y1="120.6" x2="73" y2="120.6"/>
	<line class="st0" x1="77.1" y1="120.6" x2="90.6" y2="120.6"/>
	<path class="st1" d="M25.6,102.3c0,5.3-4.3,9.6-9.6,9.6"/>
	<line class="st1" x1="16" y1="111.9" x2="16" y2="120.2"/>
	<polyline class="st1" points="48.6,120.2 48.6,113.9 47.1,102.3 	"/>
	<path class="st1" d="M64.1,120.6L58,110.5c0,0-2.7-7.2-5-8.2v17.9"/>
	<path class="st1" d="M67.8,105.1H77l-7-4.2L60,85.1c-1.1-1.8-3.1-2.9-5.3-2.9H15.8c-2.2,0-3.9,1.8-3.9,3.9v34"/>
	<line class="st1" x1="70.2" y1="106" x2="70.2" y2="120.6"/>
	<path class="st1" d="M21.9,109.9c0,0,15.6,5.3,25.9,0"/>
	<path class="st1" d="M11.9,86H9.4c-2,0-3.6,1.6-3.6,3.6v11.3"/>
</g>
<g id="seed_breeding">
</g>
<g id="malhouse_x2F_breweries">
</g>
</svg>
