<?xml version="1.0" encoding="utf-8"?>
<!-- Generator: Adobe Illustrator 24.3.0, SVG Export Plug-In . SVG Version: 6.00 Build 0)  -->
<svg version="1.1" id="Layer_1" xmlns="http://www.w3.org/2000/svg" xmlns:xlink="http://www.w3.org/1999/xlink" x="0px" y="0px"
	 viewBox="0 0 150 150" style="enable-background:new 0 0 150 150;" xml:space="preserve">
<style type="text/css">
	.st0{fill:none;stroke:#C59344;stroke-width:2;stroke-miterlimit:10;}
	.st1{fill:none;stroke:#C59344;stroke-width:2;stroke-linecap:round;stroke-linejoin:round;stroke-miterlimit:10;}
</style>
<g id="Agriculture">
</g>
<g id="grain_trade">
</g>
<g id="cooperatives">
</g>
<g id="flour_mills">
</g>
<g id="feed_mills">
</g>
<g id="seed_breeding">
</g>
<polyline class="st0" points="100.1,68.1 108.3,68.1 108.3,97.1 100.1,97.1 "/>
<line class="st1" x1="59" y1="68.1" x2="59" y2="101.3"/>
<line class="st1" x1="68.3" y1="68.1" x2="68.3" y2="101.3"/>
<line class="st1" x1="77.6" y1="68.1" x2="77.6" y2="101.3"/>
<line class="st1" x1="86.9" y1="68.1" x2="86.9" y2="101.3"/>
<path class="st1" d="M62.2,42.9c0-6,4.9-10.9,10.9-10.9S84,36.9,84,42.9"/>
<path class="st1" d="M62.2,42.9c-5.8,0-10.5,4.7-10.5,10.5"/>
<path class="st1" d="M84.1,42.9c3.8,0,6.9,3.1,6.9,6.9"/>
<path class="st1" d="M77.1,49.9c0-3.8,3.1-6.9,6.9-6.9"/>
<path class="st1" d="M91,49.9c1.8,0,3.2,1.6,3.2,3.5"/>
<path class="st1" d="M69.7,58.4c-0.7,3.1-3.5,5.4-6.8,5.4s-6.1-2.3-6.8-5.4h-4.3v45.5c0,4.5,3.6,8.1,8.1,8.1h26.2
	c4.5,0,8.1-3.6,8.1-8.1V58.4H69.7"/>
</svg>
