<?xml version="1.0" encoding="utf-8"?>
<!-- Generator: Adobe Illustrator 24.3.0, SVG Export Plug-In . SVG Version: 6.00 Build 0)  -->
<svg version="1.1" id="Ebene_1" xmlns="http://www.w3.org/2000/svg" xmlns:xlink="http://www.w3.org/1999/xlink" x="0px" y="0px"
	 viewBox="0 0 150 150" style="enable-background:new 0 0 150 150;" xml:space="preserve">
<style type="text/css">
	.st0{fill:none;stroke:#C59344;stroke-width:2;stroke-linecap:round;stroke-linejoin:round;stroke-miterlimit:10;}
	.st1{fill:none;stroke:#C59344;stroke-width:2;stroke-miterlimit:10;}
</style>
<g id="Agriculture">
</g>
<g id="grain_trade">
</g>
<g id="cooperatives">
</g>
<polyline class="st0" points="63.2,91.1 63.2,125 86.2,125 86.2,90 "/>
<line class="st1" x1="45.6" y1="125" x2="104.8" y2="125"/>
<rect x="71.3" y="110.9" class="st0" width="8" height="13.7"/>
<polygon class="st0" points="69.5,57.6 63,44.7 43.8,25 32.2,36.5 51.7,56 64.6,62.5 "/>
<polygon class="st0" points="85.2,73.2 98.1,79.8 117.8,99 106.2,110.5 86.8,91.1 80.2,78.2 "/>
<polygon class="st0" points="64.8,73.2 51.9,79.8 32.2,99 43.8,110.5 63.2,91.1 69.8,78.2 "/>
<polygon class="st0" points="80.5,57.6 87,44.7 106.2,25 117.8,36.5 98.3,56 85.4,62.5 "/>
<line class="st0" x1="78.6" y1="71.4" x2="91.4" y2="84.2"/>
<path class="st0" d="M78.6,71.4"/>
<path class="st0" d="M71.5,64.3"/>
<line class="st0" x1="58.6" y1="51.3" x2="71.5" y2="64.3"/>
<line class="st0" x1="79" y1="63.7" x2="91.4" y2="51.3"/>
<line class="st0" x1="58.6" y1="84.2" x2="71.1" y2="71.6"/>
<path class="st0" d="M78.1,64c1.1,0.9,1.8,2.3,1.8,3.8c0,2.7-2.2,4.9-4.9,4.9s-4.9-2.2-4.9-4.9s2.2-4.9,4.9-4.9
	C76.2,62.9,77.3,63.3,78.1,64"/>
<g id="feed_mills">
</g>
<g id="seed_breeding">
</g>
<g id="malhouse_x2F_breweries">
</g>
<g id="and_you">
</g>
</svg>
