<?xml version="1.0" encoding="utf-8"?>
<!-- Generator: Adobe Illustrator 24.3.0, SVG Export Plug-In . SVG Version: 6.00 Build 0)  -->
<svg version="1.1" id="Layer_1" xmlns="http://www.w3.org/2000/svg" xmlns:xlink="http://www.w3.org/1999/xlink" x="0px" y="0px"
	 viewBox="0 0 150 150" style="enable-background:new 0 0 150 150;" xml:space="preserve">
<style type="text/css">
	.st0{fill:none;stroke:#C59344;stroke-width:2;stroke-miterlimit:10;}
	.st1{fill:none;stroke:#C59344;stroke-width:2;stroke-linecap:round;stroke-linejoin:round;stroke-miterlimit:10;}
</style>
<g id="Agriculture">
</g>
<g id="grain_trade">
</g>
<g id="cooperatives">
</g>
<g id="flour_mills">
</g>
<g id="feed_mills">
</g>
<line class="st0" x1="1" y1="113.7" x2="149" y2="113.7"/>
<path class="st1" d="M79.4,87.1c0,0,0-5.5-4.3-9.4l0,0l0,0c-4.3,3.8-4.3,9.4-4.3,9.4C74.7,89.1,75.4,89.1,79.4,87.1z"/>
<path class="st1" d="M75.1,105.1c-9.5-4.5-11.7-9-10.8-16.4l0,0c0,0,3.9,1.3,7.3,4.1c2.3,1.8,3.1,4.1,3.4,6.2l0,0
	c0.3-2.1,1.2-4.5,3.4-6.2c3.5-2.7,7.3-4.1,7.3-4.1l0,0C86.6,96.1,84.6,100.6,75.1,105.1"/>
<line class="st1" x1="75" y1="105.1" x2="75" y2="113"/>
<line class="st1" x1="75" y1="88.6" x2="75" y2="96.1"/>
<path class="st1" d="M33.2,87.1c0,0,0-5.5-4.3-9.4l0,0l0,0c-4.3,3.8-4.3,9.4-4.3,9.4C28.6,89.1,29.3,89.1,33.2,87.1z"/>
<path class="st1" d="M28.9,105.1c-9.5-4.5-11.7-9-10.8-16.4l0,0c0,0,3.9,1.3,7.3,4.1c2.3,1.8,3.1,4.1,3.4,6.2l0,0
	c0.3-2.1,1.2-4.5,3.4-6.2c3.5-2.7,7.3-4.1,7.3-4.1l0,0C40.4,96.1,38.4,100.6,28.9,105.1"/>
<line class="st1" x1="28.9" y1="105.1" x2="28.9" y2="113"/>
<line class="st1" x1="28.9" y1="88.6" x2="28.9" y2="96.1"/>
<path class="st1" d="M125.5,87.1c0,0,0-5.5-4.3-9.4l0,0l0,0c-4.3,3.8-4.3,9.4-4.3,9.4C120.9,89.1,121.6,89.1,125.5,87.1z"/>
<path class="st1" d="M121.2,105.1c-9.5-4.5-11.7-9-10.8-16.4l0,0c0,0,3.9,1.3,7.3,4.1c2.3,1.8,3.1,4.1,3.4,6.2l0,0
	c0.3-2.1,1.2-4.5,3.4-6.2c3.5-2.7,7.3-4.1,7.3-4.1l0,0C132.7,96.1,130.7,100.6,121.2,105.1"/>
<line class="st1" x1="121.1" y1="105.1" x2="121.1" y2="113"/>
<line class="st1" x1="121.1" y1="88.6" x2="121.1" y2="96.1"/>
<line class="st0" x1="35.9" y1="72.3" x2="68" y2="72.3"/>
<line class="st0" x1="82" y1="72.3" x2="114.1" y2="72.3"/>
<path class="st1" d="M56.3,45.7c0,0,0-5.5-4.3-9.4l0,0l0,0c-4.3,3.8-4.3,9.4-4.3,9.4C51.7,47.7,52.4,47.7,56.3,45.7z"/>
<path class="st1" d="M52,63.7c-9.5-4.5-11.7-9-10.8-16.4l0,0c0,0,3.9,1.3,7.3,4.1c2.3,1.8,3.1,4.1,3.4,6.2l0,0
	c0.3-2.1,1.2-4.5,3.4-6.2c3.5-2.7,7.3-4.1,7.3-4.1l0,0C63.5,54.7,61.5,59.2,52,63.7"/>
<line class="st1" x1="51.9" y1="63.7" x2="51.9" y2="71.5"/>
<line class="st1" x1="51.9" y1="47.2" x2="51.9" y2="54.7"/>
<path class="st1" d="M102.4,45.7c0,0,0-5.5-4.3-9.4l0,0l0,0c-4.3,3.8-4.3,9.4-4.3,9.4C97.8,47.7,98.5,47.7,102.4,45.7z"/>
<path class="st1" d="M98.2,63.7c-9.5-4.5-11.7-9-10.8-16.4l0,0c0,0,3.9,1.3,7.3,4.1c2.3,1.8,3.1,4.1,3.4,6.2l0,0
	c0.3-2.1,1.2-4.5,3.4-6.2c3.5-2.7,7.3-4.1,7.3-4.1l0,0C109.6,54.7,107.7,59.2,98.2,63.7"/>
<line class="st1" x1="98.1" y1="63.7" x2="98.1" y2="71.5"/>
<line class="st1" x1="98.1" y1="47.2" x2="98.1" y2="54.7"/>
</svg>
