<svg id="Layer_1" data-name="Layer 1" xmlns="http://www.w3.org/2000/svg" viewBox="0 0 28.86 28.85"><defs><style>.cls-1{fill:#e5dcc3;}</style></defs><path id="phone" class="cls-1" d="M139.88,184.34a24.19,24.19,0,0,0,10.57,10.56l3.53-3.52a1.61,1.61,0,0,1,1.64-.4,18.5,18.5,0,0,0,5.72.91,1.6,1.6,0,0,1,1.6,1.6h0v5.61a1.6,1.6,0,0,1-1.6,1.6h0a27.26,27.26,0,0,1-27.26-27.25,1.6,1.6,0,0,1,1.6-1.6h5.61a1.59,1.59,0,0,1,1.6,1.6h0a18.26,18.26,0,0,0,.92,5.72,1.63,1.63,0,0,1-.4,1.64Z" transform="translate(-134.08 -171.85)"/></svg>