<?xml version="1.0" encoding="utf-8"?>
<!-- Generator: Adobe Illustrator 24.3.0, SVG Export Plug-In . SVG Version: 6.00 Build 0)  -->
<svg version="1.1" id="Layer_1" xmlns="http://www.w3.org/2000/svg" xmlns:xlink="http://www.w3.org/1999/xlink" x="0px" y="0px"
	 viewBox="0 0 150 150" style="enable-background:new 0 0 150 150;" xml:space="preserve">
<style type="text/css">
	.st0{fill:none;stroke:#C59344;stroke-width:2;stroke-miterlimit:10;}
	.st1{fill:none;stroke:#C59344;stroke-width:2;stroke-linecap:round;stroke-linejoin:round;stroke-miterlimit:10;}
	.st2{fill:none;stroke:#C59344;stroke-width:2;stroke-linejoin:round;stroke-miterlimit:10;}
	.st3{fill:#C59344;}
</style>
<g id="Agriculture">
</g>
<line class="st0" x1="0.5" y1="114.7" x2="149.5" y2="114.7"/>
<polygon class="st1" points="110.8,114.5 69,114.5 69,72.8 89.9,62.1 110.8,72.8 "/>
<polyline class="st1" points="39.2,114.7 39.2,48.3 64.6,35.3 89.9,48.3 89.9,57.4 "/>
<line class="st2" x1="39.2" y1="98.1" x2="65.9" y2="98.1"/>
<line class="st2" x1="39.2" y1="81.5" x2="65.9" y2="81.5"/>
<line class="st1" x1="39.2" y1="48.3" x2="89.9" y2="48.3"/>
<line class="st1" x1="69" y1="72.8" x2="110.8" y2="72.8"/>
<line class="st1" x1="69" y1="86.7" x2="110.8" y2="86.7"/>
<line class="st1" x1="69" y1="100.6" x2="110.8" y2="100.6"/>
<path class="st3" d="M79.7,63.9H39.2c-0.6,0-1,0.4-1,1s0.4,1,1,1h36.5L79.7,63.9z"/>
<g id="cooperatives">
</g>
<g id="flour_mills">
</g>
<g id="feed_mills">
</g>
<g id="seed_breeding">
</g>
<g id="malhouse_x2F_breweries">
</g>
</svg>
