<?xml version="1.0" encoding="utf-8"?>
<!-- Generator: Adobe Illustrator 24.3.0, SVG Export Plug-In . SVG Version: 6.00 Build 0)  -->
<svg version="1.1" id="Layer_1" xmlns="http://www.w3.org/2000/svg" xmlns:xlink="http://www.w3.org/1999/xlink" x="0px" y="0px"
	 viewBox="0 0 150 150" style="enable-background:new 0 0 150 150;" xml:space="preserve">
<style type="text/css">
	.st0{display:none;}
	.st1{fill:none;stroke:#C59344;stroke-width:2;stroke-linecap:round;stroke-linejoin:round;stroke-miterlimit:10;}
	.st2{fill:none;stroke:#C59344;stroke-width:2;stroke-miterlimit:10;}
</style>
<g id="grain_trade" class="st0">
</g>
<g id="cooperatives" class="st0">
</g>
<g id="flour_mills" class="st0">
</g>
<g id="feed_mills" class="st0">
</g>
<g id="seed_breeding" class="st0">
</g>
<g id="malhouse_x2F_breweries" class="st0">
</g>
<g id="and_you" class="st0">
</g>
<g id="Agriculture">
	<circle class="st1" cx="92.6" cy="102.6" r="12.1"/>
	<circle class="st1" cx="92.6" cy="102.6" r="6.6"/>
	<circle class="st1" cx="50.2" cy="104.8" r="9.8"/>
	<circle class="st1" cx="50.2" cy="104.8" r="4.6"/>
	<line class="st1" x1="38.1" y1="104.8" x2="26.7" y2="93.4"/>
	<line class="st1" x1="104.7" y1="102.8" x2="116" y2="91.5"/>
	<line class="st1" x1="130.8" y1="114.7" x2="135" y2="110.5"/>
	<line class="st1" x1="60" y1="104.8" x2="80.5" y2="104.8"/>
	<line class="st1" x1="56.1" y1="53.5" x2="88.7" y2="53.5"/>
	<polyline class="st1" points="26.7,66.6 56.1,62.8 97.8,62.8 	"/>
	<line class="st1" x1="38.1" y1="104.8" x2="40.3" y2="104.8"/>
	<line class="st1" x1="26.7" y1="93.4" x2="26.7" y2="77.4"/>
	<line class="st1" x1="26.7" y1="71.4" x2="26.7" y2="66.6"/>
	<polygon class="st1" points="114.9,83.3 97.8,83.3 97.8,57.4 123.7,57.4 	"/>
	<line class="st1" x1="117.1" y1="61.1" x2="112.4" y2="74.7"/>
	<line class="st1" x1="112.4" y1="61.1" x2="109.9" y2="68.4"/>
	<line class="st1" x1="56.1" y1="53.5" x2="56.1" y2="62.8"/>
	<line class="st1" x1="88.7" y1="53.5" x2="88.7" y2="62.8"/>
	<line class="st1" x1="3.5" y1="85.9" x2="18" y2="71.4"/>
	<line class="st1" x1="7.5" y1="90" x2="20.2" y2="77.4"/>
	<polyline class="st1" points="20.2,77.4 73.4,77.4 73.4,71.4 18,71.4 	"/>
	<line class="st1" x1="2" y1="84.5" x2="8.9" y2="91.4"/>
	<line class="st2" x1="12.6" y1="114.7" x2="150" y2="114.7"/>
	<line class="st1" x1="116" y1="91.5" x2="135" y2="110.5"/>
	<line class="st1" x1="109.6" y1="97.9" x2="109.6" y2="83.3"/>
	<line class="st1" x1="104.7" y1="114.7" x2="104.7" y2="102.4"/>
	<line class="st1" x1="97.8" y1="83.3" x2="26.7" y2="83.3"/>
	<line class="st1" x1="97.8" y1="57.4" x2="129.7" y2="57.4"/>
</g>
</svg>
