<svg id="Layer_1" data-name="Layer 1" xmlns="http://www.w3.org/2000/svg" viewBox="0 0 193.47 23.9"><defs><style>.cls-1{isolation:isolate;}.cls-2{fill:#c59344;}.cls-3{fill:#e5dcc3;}</style></defs><g id="PrimeGrains" class="cls-1"><g class="cls-1"><path class="cls-2" d="M55,169.44a9.43,9.43,0,0,1,3.65.63,6.81,6.81,0,0,1,2.45,1.64,6.31,6.31,0,0,1,1.37,2.34,8.57,8.57,0,0,1,0,5.42,6.23,6.23,0,0,1-1.37,2.36,6.81,6.81,0,0,1-2.45,1.64,9.43,9.43,0,0,1-3.65.63H49.68v8.19h-5V169.44ZM53.59,180.2a11.16,11.16,0,0,0,1.66-.13,3.94,3.94,0,0,0,1.41-.5,2.64,2.64,0,0,0,1-1,4.37,4.37,0,0,0,0-3.52,2.71,2.71,0,0,0-1-1,4.14,4.14,0,0,0-1.41-.5,11.18,11.18,0,0,0-1.66-.12H49.68v6.85Z" transform="translate(-44.66 -168.9)"/></g><g class="cls-1"><path class="cls-3" d="M70.61,175.75v3.07h.06a5.71,5.71,0,0,1,.87-1.43,5.5,5.5,0,0,1,1.25-1.11,6.32,6.32,0,0,1,1.5-.73A5.43,5.43,0,0,1,76,175.3a3.51,3.51,0,0,1,1,.16v4.22c-.22,0-.47-.08-.77-.11s-.59,0-.87,0a4.81,4.81,0,0,0-2.11.42,3.62,3.62,0,0,0-1.39,1.14,4.55,4.55,0,0,0-.75,1.67,9.14,9.14,0,0,0-.23,2.08v7.46H66.29V175.75Z" transform="translate(-44.66 -168.9)"/><path class="cls-3" d="M79.63,173.19v-3.75h4.55v3.75Zm4.55,2.56v16.54H79.63V175.75Z" transform="translate(-44.66 -168.9)"/><path class="cls-3" d="M93,175.75V178H93a6.48,6.48,0,0,1,2.16-2,5.84,5.84,0,0,1,2.9-.7,6.58,6.58,0,0,1,2.86.61,4,4,0,0,1,2,2.14,7.08,7.08,0,0,1,2-1.92,5.35,5.35,0,0,1,3-.83,9,9,0,0,1,2.43.32,4.57,4.57,0,0,1,3.17,2.86,7.45,7.45,0,0,1,.45,2.74v11.07h-4.55v-9.37c0-.56,0-1.08-.06-1.57a3.31,3.31,0,0,0-.35-1.28,2.15,2.15,0,0,0-.85-.87,3.1,3.1,0,0,0-1.52-.32,2.94,2.94,0,0,0-1.55.37,2.67,2.67,0,0,0-.93,1,4.08,4.08,0,0,0-.45,1.34,11.13,11.13,0,0,0-.11,1.53v9.21H99V183c0-.49,0-1,0-1.46a4,4,0,0,0-.27-1.32,2.07,2.07,0,0,0-.8-1,3.05,3.05,0,0,0-1.65-.37,3.24,3.24,0,0,0-.84.15,2.63,2.63,0,0,0-1,.54,3.28,3.28,0,0,0-.85,1.15,4.76,4.76,0,0,0-.35,2v9.6H88.66V175.75Z" transform="translate(-44.66 -168.9)"/><path class="cls-3" d="M123.15,188.32a4.1,4.1,0,0,0,2.95,1,4,4,0,0,0,2.36-.69,2.84,2.84,0,0,0,1.22-1.46h4a7.61,7.61,0,0,1-2.94,4.26,8.73,8.73,0,0,1-4.8,1.28,9.35,9.35,0,0,1-3.52-.63,7.22,7.22,0,0,1-2.66-1.77,8.18,8.18,0,0,1-1.68-2.76,10.1,10.1,0,0,1-.59-3.51,9.57,9.57,0,0,1,.61-3.46,8,8,0,0,1,4.4-4.61,8.51,8.51,0,0,1,3.44-.67,7.8,7.8,0,0,1,3.68.82,7.28,7.28,0,0,1,2.57,2.19,8.84,8.84,0,0,1,1.46,3.13,11.82,11.82,0,0,1,.32,3.68H122A4.64,4.64,0,0,0,123.15,188.32Zm5.14-8.7a3.18,3.18,0,0,0-2.48-.9,4,4,0,0,0-1.81.37,3.54,3.54,0,0,0-1.15.91,3.42,3.42,0,0,0-.61,1.16,4.86,4.86,0,0,0-.21,1.08h7.39A5.26,5.26,0,0,0,128.29,179.62Z" transform="translate(-44.66 -168.9)"/></g><g class="cls-1"><path class="cls-2" d="M151.44,192.12a8.59,8.59,0,0,1-3.3.68,11.72,11.72,0,0,1-4.72-.91,10.14,10.14,0,0,1-3.53-2.51,11.12,11.12,0,0,1-2.21-3.76,13.85,13.85,0,0,1-.77-4.66,14.34,14.34,0,0,1,.77-4.75,11.3,11.3,0,0,1,2.21-3.82,10.13,10.13,0,0,1,3.53-2.56,11.56,11.56,0,0,1,4.72-.93,11.15,11.15,0,0,1,3.41.53,9.72,9.72,0,0,1,3,1.55,8.43,8.43,0,0,1,3.25,6H153a4.83,4.83,0,0,0-1.73-2.88,5,5,0,0,0-3.11-1,5.84,5.84,0,0,0-2.88.66,5.41,5.41,0,0,0-1.92,1.76,7.87,7.87,0,0,0-1.07,2.51,12.73,12.73,0,0,0-.33,2.91,11.79,11.79,0,0,0,.33,2.8,7.64,7.64,0,0,0,1.07,2.45,5.48,5.48,0,0,0,1.92,1.75,6,6,0,0,0,2.88.65,4.89,4.89,0,0,0,5.44-4.93h-5.05v-3.74h9.6v12.35h-3.2l-.51-2.59A7.6,7.6,0,0,1,151.44,192.12Z" transform="translate(-44.66 -168.9)"/></g><g class="cls-1"><path class="cls-3" d="M166.8,175.75v3.07h.06a5.71,5.71,0,0,1,.87-1.43,5.5,5.5,0,0,1,1.25-1.11,6.32,6.32,0,0,1,1.5-.73,5.43,5.43,0,0,1,1.66-.25,3.51,3.51,0,0,1,1,.16v4.22c-.22,0-.47-.08-.77-.11s-.59,0-.87,0a4.81,4.81,0,0,0-2.11.42,3.62,3.62,0,0,0-1.39,1.14,4.55,4.55,0,0,0-.75,1.67,9.14,9.14,0,0,0-.23,2.08v7.46h-4.54V175.75Z" transform="translate(-44.66 -168.9)"/><path class="cls-3" d="M175.5,180.83a5.32,5.32,0,0,1,.8-2.65,5.42,5.42,0,0,1,1.8-1.7,7.9,7.9,0,0,1,2.44-.91,14.06,14.06,0,0,1,2.74-.27,19.91,19.91,0,0,1,2.53.17,7.81,7.81,0,0,1,2.33.69,4.56,4.56,0,0,1,1.73,1.43,4,4,0,0,1,.67,2.41v8.61a18.23,18.23,0,0,0,.13,2.14,4,4,0,0,0,.45,1.54h-4.61c-.08-.25-.15-.52-.21-.78a7.35,7.35,0,0,1-.11-.82,5.88,5.88,0,0,1-2.56,1.57,10.21,10.21,0,0,1-3,.45,8.13,8.13,0,0,1-2.2-.29,5,5,0,0,1-1.8-.9,4.14,4.14,0,0,1-1.2-1.53,5.34,5.34,0,0,1-.43-2.21,4.83,4.83,0,0,1,.5-2.32,4.13,4.13,0,0,1,1.28-1.46,5.74,5.74,0,0,1,1.79-.81,20.4,20.4,0,0,1,2-.44c.68-.1,1.36-.19,2-.25a12.66,12.66,0,0,0,1.76-.29,3,3,0,0,0,1.21-.56,1.22,1.22,0,0,0,.42-1.07,2.43,2.43,0,0,0-.24-1.17,1.72,1.72,0,0,0-.64-.67,2.5,2.5,0,0,0-.93-.32,8,8,0,0,0-1.13-.08,3.44,3.44,0,0,0-2.12.58,2.54,2.54,0,0,0-.89,1.91ZM186,184.2a1.91,1.91,0,0,1-.72.39,6.32,6.32,0,0,1-.93.24c-.33.07-.68.12-1,.17s-.72.09-1.09.16a7,7,0,0,0-1,.25,3.07,3.07,0,0,0-.87.43,2.08,2.08,0,0,0-.59.69,2.22,2.22,0,0,0-.22,1.06,2.14,2.14,0,0,0,.22,1,1.69,1.69,0,0,0,.61.66,2.42,2.42,0,0,0,.89.33,5.29,5.29,0,0,0,1.06.1,4,4,0,0,0,2.08-.45,3.11,3.11,0,0,0,1.09-1.07,3.5,3.5,0,0,0,.43-1.26,9.55,9.55,0,0,0,.08-1Z" transform="translate(-44.66 -168.9)"/><path class="cls-3" d="M195,173.19v-3.75h4.54v3.75Zm4.54,2.56v16.54H195V175.75Z" transform="translate(-44.66 -168.9)"/><path class="cls-3" d="M208.17,175.75v2.3h.1a5.16,5.16,0,0,1,2.24-2.09,6.47,6.47,0,0,1,2.82-.66,7.75,7.75,0,0,1,3,.49,4.5,4.5,0,0,1,1.84,1.38,5.28,5.28,0,0,1,.94,2.15,13.34,13.34,0,0,1,.28,2.8v10.17h-4.55V183a5.77,5.77,0,0,0-.64-3.06,2.48,2.48,0,0,0-2.27-1,3.15,3.15,0,0,0-2.69,1.11,6.14,6.14,0,0,0-.83,3.63v8.67h-4.54V175.75Z" transform="translate(-44.66 -168.9)"/><path class="cls-3" d="M227.42,188.18a2.61,2.61,0,0,0,.79.86,3.26,3.26,0,0,0,1.1.5,5,5,0,0,0,2.3.05,3.75,3.75,0,0,0,1-.35,2.14,2.14,0,0,0,.72-.65,1.6,1.6,0,0,0,.29-1c0-.69-.45-1.2-1.36-1.54a27,27,0,0,0-3.79-1c-.66-.15-1.31-.33-1.94-.53a6.69,6.69,0,0,1-1.68-.8,3.91,3.91,0,0,1-1.18-1.25,3.51,3.51,0,0,1-.45-1.84,4.91,4.91,0,0,1,.63-2.62,4.55,4.55,0,0,1,1.64-1.62,7.47,7.47,0,0,1,2.31-.83,14.19,14.19,0,0,1,2.62-.24,13.13,13.13,0,0,1,2.61.25,7.14,7.14,0,0,1,2.26.87,5,5,0,0,1,1.64,1.62,5.41,5.41,0,0,1,.79,2.54h-4.32a2,2,0,0,0-1-1.78,4.57,4.57,0,0,0-2.12-.46c-.25,0-.53,0-.83,0a2.83,2.83,0,0,0-.81.2,1.74,1.74,0,0,0-.63.47,1.22,1.22,0,0,0-.25.82,1.28,1.28,0,0,0,.44,1,3.58,3.58,0,0,0,1.17.62,15,15,0,0,0,1.65.43l1.89.42c.66.15,1.3.33,1.93.54a6.62,6.62,0,0,1,1.68.85,4.14,4.14,0,0,1,1.19,1.31,3.87,3.87,0,0,1,.45,1.94,5.21,5.21,0,0,1-.66,2.73,5.3,5.3,0,0,1-1.71,1.78,7,7,0,0,1-2.42.94,13.42,13.42,0,0,1-2.77.28,13.81,13.81,0,0,1-2.81-.29,7.3,7.3,0,0,1-2.45-1,5.27,5.27,0,0,1-2.51-4.54h4.32A2.5,2.5,0,0,0,227.42,188.18Z" transform="translate(-44.66 -168.9)"/></g></g></svg>